<?xml version="1.0" encoding="utf-8"?>
<!-- Generator: Adobe Illustrator 19.1.0, SVG Export Plug-In . SVG Version: 6.00 Build 0)  -->
<!DOCTYPE svg PUBLIC "-//W3C//DTD SVG 1.1//EN" "http://www.w3.org/Graphics/SVG/1.1/DTD/svg11.dtd">
<svg version="1.1" xmlns="http://www.w3.org/2000/svg" xmlns:xlink="http://www.w3.org/1999/xlink" x="0px" y="0px"
	 viewBox="0 0 300 127.4" style="enable-background:new 0 0 300 127.4;" xml:space="preserve">
<g id="Wireframes">
</g>
<g id="heroes">
</g>
<g id="Homepage_Comp">
</g>
<g id="page_illustrations_1_">
</g>
<g id="copy">
	<g>
		<path style="fill:#54284E;" d="M174.2,73.6h-6.3V47.5c0-4.8-2.5-7.2-7.4-7.2c-2.6,0-5,0.6-7,1.8v31.5h-6.3V21.5h6.3v17
			c2.9-1.5,5.7-2.3,8.4-2.3c7.8,0,12.3,4.2,12.3,11V73.6z"/>
		<path style="fill:#54284E;" d="M191.7,25.5c0,1-0.4,1.9-1.1,2.6c-0.7,0.7-1.6,1.1-2.6,1.1c-1,0-1.9-0.4-2.6-1.1
			c-0.7-0.7-1.1-1.6-1.1-2.6c0-1,0.4-1.9,1.1-2.6c0.7-0.7,1.6-1.1,2.6-1.1c1,0,1.9,0.4,2.6,1.1C191.4,23.7,191.7,24.5,191.7,25.5z
			 M191.2,73.6h-6.3V36.7h6.3V73.6z"/>
		<path style="fill:#E27C00;" d="M213.9,40.3c-5,0-7.6,2.3-7.6,7v26.3h-6.3V46.9c0-6.7,4.7-11,13.3-11h1.9c9.5,0,13.3,5,13.3,11
			v26.7H222V47.3c0-4.7-2.5-7-7.6-7H213.9z"/>
		<path style="fill:#54284E;" d="M264.9,71.6c-3,1.8-7,2.7-11.8,2.7c-10.8,0-16.4-7.9-16.4-18.8c0-13.1,7.2-19.5,16.2-19.5
			c2,0,3.9,0.2,5.7,0.7V21.5h6.3V71.6z M258.6,69V40.8c-1.7-0.5-3.1-0.7-4.4-0.7C246.1,40,243,47,243,55.5c0,7.7,3,14.6,10.5,14.6
			C255.7,70.1,257.4,69.8,258.6,69z"/>
		<path style="fill:#54284E;" d="M299.7,71.6c-3.2,1.8-7.4,2.7-12.6,2.7c-9.3,0-14-3.6-14-10.9c0-4.5,2-7.9,6-10.2
			c3.2-1.8,8-3,14.6-3.7v-2.1c0-4.9-2.7-7.4-8.2-7.4c-2.8,0-5.8,0.8-8.9,2.3v-4.5c3-1.3,6.3-2,9.9-2c6.9,0,13.1,3,13.1,12V71.6z
			 M293.8,69.4V53.3c-5,0.6-8.5,1.6-10.6,2.8c-2.6,1.5-3.9,3.9-3.9,7.1c0,4.9,2.8,7.4,8.4,7.4C290.4,70.6,292.4,70.2,293.8,69.4z"/>
		<rect x="0.6" y="87.2" style="fill:#54284E;" width="6.3" height="36.9"/>
		<path style="fill:#54284E;" d="M3.7,72.3c-1,0-1.9,0.4-2.6,1.1C0.4,74.1,0,75,0,76c0,1,0.4,1.9,1.1,2.6c0.7,0.7,1.6,1.1,2.6,1.1
			c1,0,1.9-0.4,2.6-1.1C7.1,77.9,7.4,77,7.4,76c0-1-0.4-1.9-1.1-2.6C5.6,72.7,4.7,72.3,3.7,72.3z"/>
		<path style="fill:#54284E;" d="M31.4,86.4c-5.5,0-10.1,0.9-13.8,2.8v34.8h6.3V92c1.9-0.8,4.1-1.2,6.8-1.2c5,0,7.6,2.3,7.6,7v26.3
			h6.3V97.4C44.6,90.4,39.7,86.4,31.4,86.4z"/>
		<path style="fill:#54284E;" d="M53.2,105.6c0,11.4,6.3,19.3,14.9,19.3c4.9,0,8.5-0.8,10.8-2.4v-4.9c-2.6,1.7-5.7,2.5-9.3,2.5
			c-6.1,0-10.1-6.2-10.1-14.8c0-8.7,3.8-14.5,10.4-14.5c3.7,0,6.7,0.9,9.1,2.6v-4.5c-2.5-1.6-6-2.4-10.5-2.4
			C59.6,86.4,53.2,93.8,53.2,105.6z"/>
		<path style="fill:#54284E;" d="M248.3,86.4c-10.1,0-15.1,8.8-15.1,19c0,12.9,6.9,19.3,16.5,19.3c4.3,0,7.8-0.9,10.5-2.7v-4.3
			c-2.7,1.5-6,2.3-9.9,2.3c-7.7,0-10.4-6.4-11-11.1l22.8-2.1c0.2-6.4-1-11.5-3.5-15.1C256.2,88.2,252.7,86.4,248.3,86.4z
			 M239.2,104.4c0-1.6-0.5-6.4,2.9-10.6c1.7-2.2,3.7-3.3,5.9-3.3c2.5,0,4.5,1.1,6,3.2c1.5,2.1,2.2,5.2,2.3,9.1L239.2,104.4z"/>
		<path style="fill:#54284E;" d="M100.8,86.4c-10.1,0-15.1,8.8-15.1,19c0,12.9,6.9,19.3,16.5,19.3c4.3,0,7.8-0.9,10.5-2.7v-4.3
			c-2.7,1.5-6,2.3-9.9,2.3c-7.7,0-10.4-6.4-11-11.1l22.8-2.1c0.2-6.4-1-11.5-3.5-15.1C108.7,88.2,105.2,86.4,100.8,86.4z
			 M91.7,104.4c0-1.6-0.5-6.4,2.9-10.6c1.7-2.2,3.7-3.3,5.9-3.3c2.5,0,4.5,1.1,6,3.2c1.5,2.1,2.2,5.2,2.3,9.1L91.7,104.4z"/>
		<path style="fill:#54284E;" d="M137.2,86.4c-5.5,0-10.1,0.9-13.8,2.8v34.8h6.3V92c1.9-0.8,4.1-1.2,6.8-1.2c5,0,7.6,2.3,7.6,7v26.3
			h6.3V97.4C150.5,90.5,145.6,86.4,137.2,86.4z"/>
		<path style="fill:#54284E;" d="M167.9,77.8l-6.2,1.9v7.4h-4.9v4.3h4.9v23.9c0,2.6,0.7,4.7,2.1,6.4c1.6,2,3.9,3,7,3
			c1.3,0,2.6-0.2,3.9-0.6v-4c-0.8,0.1-1.6,0.2-2.2,0.2c-3.1,0-4.6-1.8-4.6-5.4V91.5h8.7v-4.3h-8.7V77.8z"/>
		<rect x="184.9" y="87.2" style="fill:#54284E;" width="6.3" height="36.9"/>
		<path style="fill:#77BC1F;" d="M214.1,31.3h0.5c1.9,0,2.6-0.7,3.5-1.5L237.1,11L231,6l-13.3,17L220,0h-11.1l2.3,22.9L197.8,6
			l-6.1,5l18.9,18.8C211.5,30.7,212.5,31.3,214.1,31.3z"/>
		<path style="fill:#E27C00;" d="M214.3,113H214c-0.1-1.1-7.5-25.8-7.5-25.8h-6.5l12,40.2h3.8l12.6-40.2h-6.4
			C221.9,87.2,214.3,112,214.3,113z"/>
		<path style="fill:#54284E;" d="M282,102.8c-3.7-1.4-6.1-2.8-6.1-6.5c0-3.4,2.4-5.7,6.1-5.7c1.3,0,2.8,0.2,4.5,0.6
			c1.6,0.4,2.8,0.9,3.4,1.4v-4.4c-2.7-1.3-5.6-1.9-8.8-1.9c-7,0-11,5-11,10.2c0,4.9,2.9,8.4,8.7,10.6c4,1.5,6.1,3.2,6.1,6.9
			c0,2.8-2.3,6.2-6.9,6.2c-3.3,0-6-0.9-8.2-2.7v4.6c2.4,1.7,5.3,2.6,8.8,2.6c6.6,0,12.6-4.5,12.6-10.7C291,109,288,105.2,282,102.8z
			"/>
		<g>
			<path style="fill-rule:evenodd;clip-rule:evenodd;fill:#54284E;" d="M293.5,120.9c0-1.8,1.5-3.2,3.3-3.2c1.7,0,3.2,1.4,3.2,3.2
				c0,1.8-1.5,3.2-3.2,3.2C295,124.1,293.5,122.7,293.5,120.9L293.5,120.9z M296.8,123.5c1.4,0,2.6-1.1,2.6-2.7
				c0-1.5-1.1-2.7-2.6-2.7c-1.5,0-2.6,1.1-2.6,2.7C294.2,122.4,295.3,123.5,296.8,123.5L296.8,123.5z"/>
			<path style="fill-rule:evenodd;clip-rule:evenodd;fill:#54284E;" d="M296.1,122.7h-0.6V119h1.4c0.9,0,1.3,0.3,1.3,1
				c0,0.7-0.5,1-1,1l1,1.6h-0.6l-1-1.6h-0.6V122.7L296.1,122.7z M296.8,120.6c0.5,0,0.9,0,0.9-0.6c0-0.5-0.4-0.6-0.8-0.6h-0.7v1.1
				H296.8L296.8,120.6z"/>
		</g>
	</g>
</g>
<g id="Layer_5">
</g>
<g id="mobile_menu">
</g>
<g id="Lightbox">
</g>
</svg>
